<svg xmlns="http://www.w3.org/2000/svg" viewBox="0 0 200 100">
  <filter id="a" x="0" y="0" width="1" height="1">
    <feTurbulence type="noise" baseFrequency=".01"/>
    <feColorMatrix type="hueRotate" result="map">
      <animate attributeName="values" values="0;360" dur="10s" repeatCount="indefinite"/>
    </feColorMatrix>
    <feDisplacementMap in="SourceGraphic" in2="map" scale="20" xChannelSelector="R" yChannelSelector="G"/>
  </filter>
  <path fill="#b66dd2" filter="url(#a)" d="M7.239 3.861c-.346.346-.257.817.66 3.491 1.389 4.05 1.428 4.461.467 4.952-1.137.58-1.206 2.053-.277 5.939 1.198 5.014 2.462 9.032 4.778 15.19a447.235 447.235 0 0 1 3.15 8.716c2.71 7.809 4.122 11.64 7.402 20.081 6.76 17.394 12.927 31.083 17.198 38.175 2.172 3.605 2.33 3.782 3.393 3.783 1.311.002 1.461-1.142.505-3.85-1.158-3.28-1.209-3.903-.42-5.131l.432-.674.091-4.665c.105-5.456.177-6.782.388-7.176.264-.494.418-.097.537 1.381.319 3.978 1.063 6.537 1.873 6.44.523-.062.58-.581.264-2.383-.209-1.19-.303-2.536-.383-5.495-.059-2.155-.21-4.889-.337-6.075a32.353 32.353 0 0 1-.175-4.324l.055-2.168.698-2.095c.384-1.152 1.066-3.567 1.515-5.366 1.424-5.712 3.745-10.85 4.901-10.85.758 0 4.117 4.932 6.081 8.93 1.155 2.351 2.148 4.187 5.332 9.854 1.954 3.477 2.128 3.977 4.617 13.243a111.294 111.294 0 0 0 1.636 5.473c.45 1.338 1.156 3.675 1.569 5.195.412 1.519 1.042 3.557 1.398 4.527.357.97.723 2.084.815 2.474.235 1.006.634 1.523 1.561 2.023 2.764 1.49 3.339-.559 1.606-5.725-.561-1.671-.748-2.751-.476-2.751.201 0 .546.869.881 2.22.554 2.238 1.284 3.284 2.048 2.936.821-.374-.479-4.901-2.314-8.062-1.98-3.41-2.538-4.577-3.781-7.905A86.921 86.921 0 0 0 73.208 80c-1.429-3.197-2.558-6.073-3.263-8.311-.351-1.115-1.149-3.304-1.773-4.865a555.047 555.047 0 0 1-2.073-5.27c-1.142-2.958-2.587-6.424-3.663-8.784-.441-.966-.992-2.304-1.226-2.973-.916-2.619-1.977-3.735-4.367-4.595-.428-.154-1.034-.579-1.736-1.217-1.544-1.404-2.262-1.739-3.517-1.641-4.37.341-4.037.118-6.029 4.035-1.336 2.625-1.87 4.219-1.984 5.921-.047.704-.202 1.95-.344 2.768-.309 1.78-1.103 7.263-1.488 10.27-.179 1.396-.319 3.598-.395 6.216-.065 2.23-.212 4.936-.326 6.014a46.576 46.576 0 0 0-.21 4.013c-.004 2.754-.41 5.862-.825 6.312-.304.33-.949-.8-1.881-3.298-.319-.855-1.415-3.561-2.435-6.014-2.014-4.841-2.398-5.829-4.438-11.419a347.326 347.326 0 0 0-2.524-6.689c-2.05-5.216-3.098-8.021-4.319-11.554-.655-1.895-2.033-5.56-3.061-8.144-1.028-2.584-2.395-6.202-3.038-8.041-.642-1.838-1.469-4.072-1.836-4.964-1.891-4.594-2.299-5.688-2.745-7.365-.95-3.569-1.151-4.215-1.943-6.263a77.383 77.383 0 0 1-1.409-4.02C8.437 3.954 8.008 3.093 7.239 3.861m175.35 24.714c-.534.482-1.154 1.68-1.856 3.587-.318.863-.499 1.131-1.22 1.801-1.382 1.285-1.627 2.67-.93 5.245.52 1.922.901 4.617 1.153 8.157.178 2.499.451 4.065.956 5.468.227.635.685 2.035 1.016 3.113 1.949 6.345 7.346 13.204 13.121 16.674 1.469.883 1.45 1.141-.262 3.561-2.917 4.123-4.61 6.841-7.157 11.494-1.897 3.467-1.742 3.257-9.03 12.277a253.183 253.183 0 0 1-4.125 4.98c-2.832 3.288-2.909 3.455-1.97 4.264l.576.496-.215.416c-.118.229-.53.678-.915.999-1.546 1.285-1.875 1.907-1.202 2.267.593.317.943.167 2.041-.879 1.075-1.024 1.932-1.541 2.566-1.546.508-.004.884-.329 1.544-1.331.416-.632 1.083-1.32 2.226-2.296 1.773-1.514 2.847-2.67 4.61-4.961.628-.816 1.876-2.245 2.774-3.177.899-.933 1.957-2.179 2.352-2.771a23.287 23.287 0 0 1 1.485-1.954c1.554-1.78 5.774-7.601 7.508-10.355 2.672-4.247 5.296-7.967 5.88-8.336.351-.222.781-.29 2.382-.377 1.446-.079 2.081-.169 2.444-.35 1.171-.582 1.259-1.633.124-1.475-4.114.573-4.136-.298-.146-5.931 1.834-2.588 2.206-3.193 3.312-5.375.595-1.173 1.585-2.876 2.201-3.784a65.755 65.755 0 0 0 1.711-2.652c.324-.55 1.11-1.561 1.745-2.246s1.447-1.739 1.804-2.341c.358-.603.94-1.447 1.295-1.876a24.59 24.59 0 0 0 1.212-1.622 13.79 13.79 0 0 1 1.309-1.602c1.485-1.521 2.228-3.257 1.818-4.248-.36-.868-1.136-.804-1.289.106-.221 1.316-.657 2.01-1.553 2.467-.282.144-.745.552-1.029.906-.764.956-3.284 3.593-3.613 3.783-.157.09-.577.166-.934.169-.74.005-1.311.434-1.311.985 0 .891-.688 1.746-4.595 5.709-3.328 3.375-4.114 4.255-5.676 6.351-3.922 5.265-4.583 6.012-5.322 6.015-1.455.007-11.689-13.142-12.307-15.813-.305-1.315-1.796-10.669-1.961-12.297-.517-5.103-.544-8.013-.086-9.293.678-1.891-1.103-3.629-2.461-2.402m.304 4.503c.133.419.34 2.292.555 5.02a92.26 92.26 0 0 0 .541 4.934c.74 5.094.275 5.371-1.827 1.09-1.475-3.004-1.602-3.906-1.023-7.23.507-2.911 1.414-4.884 1.754-3.814m172.6 7.47c-1.181.131-2.175.391-3.152.824-.465.206-1.085.317-2.179.39-5.348.356-9.878 7.991-9.889 16.666 0 .51-.167 1.848-.369 2.973-.571 3.166-.546 6.723.068 9.815.643 3.241.785 3.715 1.538 5.135 3.04 5.732 6.701 7.927 11.52 6.906.737-.156 1.679-.285 2.095-.286 2.521-.008 5.301-1.62 9.201-5.333.558-.531 1.774-1.575 2.703-2.321 2.035-1.634 2.979-2.624 4.475-4.692 1.862-2.575 2.386-3.835 2.693-6.479.294-2.523 2.541-6.308 3.746-6.308.924 0 5.94 6.301 8.355 10.495 1.568 2.723 2.772 4.364 3.469 4.725.817.424 1.225-.429.607-1.269a148.46 148.46 0 0 0-.985-1.304c-.374-.491-1.134-1.714-1.689-2.718-.555-1.005-1.417-2.388-1.916-3.074-2.015-2.771-3.603-5.295-3.436-5.462.287-.288 3.29 2.688 4.603 4.56 2.334 3.329 3.287 4.452 3.778 4.452.772 0 .641-.958-.302-2.204a83.063 83.063 0 0 1-1.568-2.175c-1.88-2.696-4.267-5.32-6.919-7.606-2.601-2.242-2.681-2.432-1.819-4.348 1.026-2.283 1.364-3.922.902-4.383-.321-.321-.412-.297-1.058.282a11.17 11.17 0 0 1-1.071.842c-.332.22-.643.617-.93 1.189-.655 1.303-1.517 1.403-2.069.239-.328-.691.436-2.106 1.137-2.106.323 0 .41-.748.114-.988-.398-.322-.908-.228-1.806.334-1.283.804-1.619.74-3.624-.685-2.867-2.038-3.216-2.254-5.663-3.51-4.008-2.059-7.512-2.913-10.56-2.576m-42.101.536c-1.761.371-2.214 1.219-2.308 4.321l-.072 2.365-.471.811c-.637 1.097-.643 2.472-.02 4.804.229.859.48 2.227.558 3.041.078.814.203 1.814.278 2.223.076.408.193 2.354.261 4.324.103 2.957.197 4.028.545 6.149.308 1.884.453 3.34.544 5.473.13 3.068.121 3.007 1.398 8.986 1.01 4.726 1.567 6.014 2.606 6.014.823 0 1.156-.518 1.332-2.071.049-.433.204-1.041.345-1.351.365-.803.328-1.198-.23-2.433-.471-1.042-.497-1.181-.597-3.125-.058-1.119-.201-2.477-.318-3.018-.287-1.333-1.218-6.935-1.559-9.386-.216-1.555-.277-2.705-.277-5.236 0-2.294-.079-4.012-.272-5.87-.582-5.61-.381-7.242 1.293-10.484 1.063-2.057 1.701-2.377 3.208-1.612 2.897 1.472 9.231 8.386 10.231 11.167.458 1.273 1.05 1.619 1.454.85.243-.463.12-1.139-.441-2.415-.581-1.321-.598-1.603-.101-1.721 1.981-.471.643-2.992-3.973-7.485-3.707-3.607-4.968-4.2-8.223-3.861-.793.082-1.077.051-1.757-.192-.919-.33-2.54-.456-3.434-.268m-167.31.625c-4.226.551-7.189 1.391-9.459 2.683-2.846 1.619-3.362 1.76-7.225 1.965-3.123.165-3.428.23-3.763.798-.447.756-.311 1.465.407 2.135.865.805.546 1.206-2.126 2.669-1.673.917-2.048 1.231-1.997 1.674.121 1.038 2.87-.186 8.014-3.567 2.584-1.698 3.856-2.316 5.273-2.56 1.614-.277 5.284-1.05 8.038-1.692 5.208-1.215 6.077-1.268 6.083-.372.005.667-1.011 2.286-2.339 3.728-3.943 4.283-7.417 9.519-9.409 14.181a77.414 77.414 0 0 1-1.476 3.243c-1.402 2.825-2.553 7.039-3.458 12.663-.46 2.855-.411 4.168.268 7.118.442 1.924.434 3.281-.03 5.489-.838 3.984-.333 5.164 2.118 4.943 1.442-.13 2.221-.128 4.257.008 2.043.137 3.33-.067 6.419-1.02 5.532-1.706 6.004-1.896 7.833-3.149.571-.391 1.712-.977 2.576-1.322.852-.342 2.766-1.198 4.253-1.905 1.486-.706 3.493-1.565 4.459-1.909 3.61-1.286 4.114-1.49 6.689-2.709 1.45-.686 2.848-1.326 3.109-1.422.26-.097 1.385-.601 2.5-1.12 1.114-.52 2.821-1.204 3.792-1.521 3.114-1.015 5.059-2.176 5.059-3.019 0-.821-.59-.9-1.555-.208-1.031.74-1.864 1.125-3.783 1.749-.966.314-2.669.994-3.784 1.511-1.115.517-2.24 1.021-2.5 1.12-.26.1-1.506.665-2.77 1.256-5.9 2.761-7.836 2.807-3.919.093a63.56 63.56 0 0 0 2.703-2.023c.817-.649 2.459-1.838 3.648-2.641 1.19-.804 2.778-1.922 3.53-2.485a128.67 128.67 0 0 1 2.129-1.564c.419-.297 1.184-1.036 1.698-1.642.515-.606 1.427-1.476 2.028-1.933 2.225-1.694 1.828-3.053-.442-1.515-.31.21-1.02.632-1.578.938-.557.306-1.598.97-2.313 1.476-4.674 3.308-8.188 5.667-10.08 6.768-.802.467-2.401 1.551-3.553 2.41-1.152.858-3.736 2.73-5.743 4.159-8.451 6.019-9.923 6.89-13.053 7.718-.997.263-2.45.689-3.231.946-1.918.631-2.95.851-4.392.94-2.074.128-2.471-.178-2.984-2.296-.607-2.511-.665-3.232-.403-4.946.684-4.478.816-5.136 2.447-12.212.274-1.189.726-2.74 1.005-3.446.279-.706.767-2.074 1.085-3.041.318-.966.912-2.425 1.321-3.243.408-.817.885-1.865 1.059-2.328.393-1.042 2.298-4.862 2.998-6.011.285-.467 1.077-1.924 1.761-3.236 1.302-2.499 1.519-2.808 5.038-7.164 2.454-3.038 2.686-3.388 2.686-4.055.001-.971-.731-1.229-2.431-.855-1.135.25-2.048.249-2.973-.002-.79-.214-2.727-.351-3.514-.248m82.967 2.379c-4.124 3.846-8.6 10.359-10.002 14.551-1.732 5.183-.901 10.651 2.717 17.859 5.765 11.489 17.971 16.887 25.943 11.473 1.323-.899 3.495-3.092 5.191-5.241a136.1 136.1 0 0 1 2.314-2.865c1.085-1.274 1.927-2.537 3.02-4.527 1.807-3.289 2.065-3.283 3.759.085 1.444 2.871 1.877 3.457 4.555 6.178 3.361 3.413 4.044 3.869 7.146 4.76 2.904.835 3.203.869 7.593.864l4.054-.005 1.854-.49c3.234-.856 8.101-3.314 9.924-5.012a50.627 50.627 0 0 1 2.073-1.812c2.288-1.863 6.078-6.933 7.045-9.426 2.002-5.161 1.996-8.449-.021-11.295-.574-.81-1.476-2.349-2.004-3.419-2.601-5.276-7.819-8.596-17.013-10.827-.668-.163-1.18-.392-1.612-.721-.9-.688-1.549-.716-3.767-.16-1.629.409-1.968.446-4.925.537-5.036.154-7.915.795-9.916 2.205-.455.321-1.253.818-1.773 1.104-2.831 1.555-4.733 5.657-4.687 10.105.018 1.703-.021 2.034-.467 3.919-.346 1.46-.513 2.534-.575 3.692-.126 2.356-1.153 4.185-4.321 7.694-1.883 2.087-5.718 6.452-6.732 7.663-1.01 1.207-2.847 2.896-3.927 3.611-2.365 1.567-9.567.861-14.009-1.373-2.539-1.276-5.785-5.869-7.274-10.294-2.165-6.433 1.702-19.475 7.475-25.213 1.484-1.475 1.68-2.073.799-2.438-.584-.242-.595-.313-.193-1.21.925-2.061-.018-2.049-2.244.028m86.661-.605c.334.293.294.671-.154 1.449-.855 1.487-1.405 1.511-1.474.065-.077-1.614.696-2.333 1.628-1.514M53.53 44.976c.556.497.48.795-.11.436-.52-.317-.84-.817-.522-.817.112 0 .397.171.632.381m302.96.703c5.703 1.705 7.515 2.266 9.46 2.928 6.625 2.255 6.845 2.582 5.09 7.542-.281.794-.569 1.98-.698 2.877-.405 2.805-.83 3.978-3.049 8.42-4.515 9.034-8.783 12.946-14.181 12.994-2.898.027-6.192-2.55-8.472-6.626-2.156-3.856-3.334-12.689-2.157-16.179 1.893-5.614 5.494-9.819 10.206-11.917 1.474-.657 1.726-.659 3.801-.039m-305.62.71c.169.169.577.761.906 1.315 1.008 1.696.966 1.932-1.056 5.96-1.247 2.484-1.823 3.811-2.34 5.39-1.206 3.677-1.876 3.13-1.288-1.052.118-.839.214-2.346.214-3.35 0-2.212.189-3.202 1.109-5.827.939-2.678 1.578-3.312 2.455-2.436m224.01.169c.276.333-.204.719-2.888 2.321-1.345.802-2.963 1.858-3.597 2.346a49.42 49.42 0 0 1-2.032 1.478c-.483.326-1.38 1.071-1.993 1.657-1.3 1.241-1.567 1.298-1.628.347-.136-2.101 1.238-4.437 3.282-5.58.52-.29 1.371-.816 1.892-1.167 1.718-1.16 6.385-2.1 6.964-1.402m13.037.464c1.825.133 4.674 1.083 7.727 2.575 2.472 1.208 3.703 2.301 2.577 2.291-.444-.005-.729-.131-2.804-1.24-1.344-.72-1.61-.79-4.961-1.323a276.544 276.544 0 0 1-3.685-.61c-.631-.114-2.029-.266-3.108-.34-1.079-.073-2.104-.165-2.278-.205-1.265-.291 2.911-1.518 4.505-1.323.298.036 1.21.115 2.027.175m-105.56 1.412c.165.179.66.984 1.098 1.79.438.806 1.039 1.86 1.334 2.344.801 1.31.867 1.529 1.311 4.327.69 4.345.61 5.004-.472 3.875-.796-.83-1.671-2.665-2.366-4.959a57.05 57.05 0 0 0-.947-2.866c-1.094-2.888-1.068-5.709.042-4.511m106.6 2.179c4.068.688 4.863.906 6.243 1.712.514.3 1.628.871 2.477 1.27 1.726.811 2.278 1.163 4.03 2.569 1.823 1.463 1.758 1.275 1.753 5.052-.005 4.107-.291 5.167-2.35 8.716a70.275 70.275 0 0 0-1.504 2.762c-.558 1.094-.965 1.67-1.812 2.567a60.156 60.156 0 0 0-2.049 2.307c-1.193 1.434-1.814 1.995-3.207 2.903-5.884 3.832-9.825 4.647-15.628 3.229-5.712-1.394-8.546-3.52-10.827-8.119-1.491-3.005-1.467-2.883-1.469-7.557-.002-4.712.149-5.575 1.41-8.092.885-1.767 1.468-2.532 1.881-2.473.309.044.316.065.688 2.068.497 2.674 2.707 5.723 3.926 5.417.644-.161.534-.546-.493-1.724-4.646-5.33-1.116-11.914 6.911-12.89 1.078-.131 2.263-.285 2.635-.342 1.332-.205 3.62-.011 7.385.625m-203.74.119c-5.15 1.168-7.68 4.789-10.533 15.077-1.552 5.596-.96 9.813 1.872 13.332 5.558 6.904 15.005 7.927 25.36 2.746 3.396-1.699 3.479-1.756 5.395-3.704 2.489-2.53 3.862-3.307 4.611-2.609 1.596 1.487 7.02 11.13 7.409 13.17.47 2.474.8 3.065 1.526 2.734.401-.183.778-.914.781-1.516.003-.649.177-.834.748-.796.579.039 1.142-.277 1.142-.642 0-.384-2.002-4.311-3.824-7.503-1.978-3.464-2.253-4.017-2.734-5.48a32.044 32.044 0 0 0-.812-2.169c-.868-2.035-.855-2.077 1.368-4.341 1.885-1.919 2.302-2.602 2.172-3.553-.139-1.011 1.217-2.421 2.748-2.86 1.732-.497 1.876-1.537.214-1.537-1.177 0-3.91 1.885-6.909 4.764-2.397 2.3-2.296 2.342-4.999-2.061-.635-1.035-1.302-1.809-3.435-3.987-1.455-1.486-2.977-3.115-3.381-3.619-.796-.995-1.312-1.42-3.594-2.965-2.924-1.978-5.313-2.563-10.733-2.624-2.66-.031-3.79.006-4.392.143m-28.105.37c1.02.896 1.603 3.014.644 2.343-.372-.261-1.493-1.937-1.602-2.398-.125-.526.325-.5.958.055m34.12 1.208c1.737.373 7.528 3.851 9.652 5.798a57.545 57.545 0 0 0 1.691 1.487c.404.334 1.25 1.306 1.881 2.158a37.475 37.475 0 0 0 2.389 2.863c2.076 2.193 4.445 5.495 4.363 6.079-.125.88-.484.601-5.091-3.97-4.655-4.618-4.756-4.708-6.779-6.054a70.51 70.51 0 0 1-2.5-1.76c-1.369-1.02-3.757-2.349-7.189-4.001-2.277-1.096-2.699-1.408-2.524-1.865.271-.705 2.437-1.093 4.107-.735m283.52 2.004c.764.764.289 2.356-1.476 4.943-1.531 2.245-1.891.038-.552-3.387.796-2.035 1.222-2.362 2.028-1.556m-107.98.643c0 .272-2.519 5.034-2.836 5.361-.947.978-1.613-.643-.825-2.007.88-1.523 3.661-4.07 3.661-3.354m-180.12.295c2.241.771 7.701 3.609 9.48 4.925.539.4 1.771 1.262 2.737 1.916 1.938 1.311 9.297 8.431 10.19 9.859.702 1.122.45 1.682-1.183 2.626-8.567 4.951-8.932 5.087-13.669 5.08-6.977-.011-11.102-2.519-12.107-7.361-.624-3.007.036-11.866 1.095-14.677.935-2.485 1.666-2.985 3.457-2.368m102.88 4.287c.377.453 1.544 1.912 2.594 3.244 1.049 1.331 2.654 3.241 3.565 4.244 2.537 2.794 2.792 3.309 2.019 4.082-1.208 1.207-5.839-1.788-7.205-4.66-1.779-3.739-2.242-5.126-2.246-6.731-.003-1.375.248-1.411 1.273-.179m-144.66.685c.004 2.207-1.021 10.313-1.346 10.637-.729.73-.409-5.11.558-10.18.44-2.303.784-2.502.788-.457m35.944.02c-.003.498-.095 1.513-.206 2.256-.288 1.942-.407 6.838-.207 8.549.685 5.857 4.069 8.921 11.146 10.095 2.789.463 2.914.527 2.027 1.045-2.717 1.587-8.144 1.235-11.065-.718-3.618-2.42-4.908-6.155-4.124-11.944.149-1.098.271-2.55.271-3.228.002-2.464.686-5.443 1.511-6.583.506-.698.652-.579.647.528m225.14 2.41c.403 1.22-.218 5.018-1.24 7.594-.494 1.244-.989 2.018-2.433 3.806-.63.78-1.484 1.875-1.898 2.432-1.282 1.728-3.489 3.388-3.489 2.626 0-.431.754-1.476 2.039-2.828 1.187-1.248 1.398-1.551 2.087-2.992a46.895 46.895 0 0 1 1.478-2.819c1.441-2.46 2.047-3.928 2.426-5.878.514-2.643.69-2.973 1.03-1.941m-43.366.586.402.403-.049 4.028c-.05 4.004-.085 4.356-.435 4.356-.461 0-.783-1.162-.686-2.473.089-1.196.077-1.277-.318-2.122-1.102-2.357-.275-5.552 1.086-4.192m-56.566 1.051c-.351 1.446-3.037 6.184-3.681 6.491-1.01.483-1.514-.703-.77-1.81.961-1.432 4.118-5.053 4.405-5.053.081 0 .1.152.046.372m-129.13 3.506c0 .544-.095 1.611-.211 2.373a28.05 28.05 0 0 0-.254 2.668c-.057 1.646-.054 1.621-.196 1.621-.681 0-1.022-4.64-.482-6.554.528-1.869 1.143-1.927 1.143-.108m122.47 6.531c.848.667.39 1.661-3.262 7.079-1.755 2.602-6.523 10.214-7.53 12.022-.789 1.415-3.685 4.948-5.998 7.314a88.357 88.357 0 0 0-2.923 3.165c-1.852 2.136-4.754 4.606-5.412 4.606-.64 0 .134-1.517 1.655-3.244.426-.483 1.824-2.186 3.108-3.784 1.284-1.597 3.25-4.027 4.369-5.398 2.539-3.112 3.551-4.526 4.63-6.467 3.819-6.874 7.073-11.998 9.46-14.897.566-.688 1.329-.847 1.903-.396m55.093 2.892c0 .806-1.757 3.253-2.869 3.996-1.979 1.322-1.65.244.748-2.442 1.438-1.613 2.121-2.113 2.121-1.554m-211.25 1.738c-.057 1.045-.235 1.509-.446 1.166-.161-.259-.107-2.032.075-2.489l.162-.405.133.338c.073.185.107.811.076 1.39m202.58 8.027c-.101.524-2.478 1.287-2.731.877-.104-.168.626-.741 1.201-.942.693-.242 1.582-.204 1.53.065" fill-rule="evenodd" transform="translate(18.704 26.089) scale(.40823)"/>
</svg>