<?xml version="1.0" encoding="UTF-8" standalone="no"?>
<svg
   viewBox="0 0 400 200"
   version="1.1"
   xmlns="http://www.w3.org/2000/svg">
  <filter
     id="refract_fast"
     x="0"
     y="0"
     width="1"
     height="1">
    <feTurbulence
       type="noise"
       baseFrequency="0.01"
       id="feTurbulence49" />
    <feColorMatrix
       type="hueRotate"
       result="map"
       id="feColorMatrix51">
      <animate
         attributeName="values"
         values="0;360"
         dur="10s"
         repeatCount="indefinite" />
    </feColorMatrix>
    <feDisplacementMap
       in="SourceGraphic"
       in2="map"
       scale="20"
       xChannelSelector="R"
       yChannelSelector="G"
       id="feDisplacementMap53" />
  </filter>
  <rect fill="#242738" width="100%" height="100%" />
  <path
     fill="#ffffff"
     filter="url(#refract_fast)"
     d="m 7.239,3.861 c -0.346,0.346 -0.257,0.817 0.66,3.491 1.389,4.05 1.428,4.461 0.467,4.952 -1.137,0.58 -1.206,2.053 -0.277,5.939 1.198,5.014 2.462,9.032 4.778,15.19 a 447.235,447.235 0 0 1 3.15,8.716 c 2.71,7.809 4.122,11.64 7.402,20.081 6.76,17.394 12.927,31.083 17.198,38.175 2.172,3.605 2.33,3.782 3.393,3.783 1.311,0.002 1.461,-1.142 0.505,-3.85 -1.158,-3.28 -1.209,-3.903 -0.42,-5.131 l 0.432,-0.674 0.091,-4.665 c 0.105,-5.456 0.177,-6.782 0.388,-7.176 0.264,-0.494 0.418,-0.097 0.537,1.381 0.319,3.978 1.063,6.537 1.873,6.44 0.523,-0.062 0.58,-0.581 0.264,-2.383 -0.209,-1.19 -0.303,-2.536 -0.383,-5.495 -0.059,-2.155 -0.21,-4.889 -0.337,-6.075 a 32.353,32.353 0 0 1 -0.175,-4.324 l 0.055,-2.168 0.698,-2.095 c 0.384,-1.152 1.066,-3.567 1.515,-5.366 1.424,-5.712 3.745,-10.85 4.901,-10.85 0.758,0 4.117,4.932 6.081,8.93 1.155,2.351 2.148,4.187 5.332,9.854 1.954,3.477 2.128,3.977 4.617,13.243 a 111.294,111.294 0 0 0 1.636,5.473 c 0.45,1.338 1.156,3.675 1.569,5.195 0.412,1.519 1.042,3.557 1.398,4.527 0.357,0.97 0.723,2.084 0.815,2.474 0.235,1.006 0.634,1.523 1.561,2.023 2.764,1.49 3.339,-0.559 1.606,-5.725 C 78.008,96.08 77.821,95 78.093,95 c 0.201,0 0.546,0.869 0.881,2.22 0.554,2.238 1.284,3.284 2.048,2.936 0.821,-0.374 -0.479,-4.901 -2.314,-8.062 -1.98,-3.41 -2.538,-4.577 -3.781,-7.905 A 86.921,86.921 0 0 0 73.208,80 C 71.779,76.803 70.65,73.927 69.945,71.689 69.594,70.574 68.796,68.385 68.172,66.824 a 555.047,555.047 0 0 1 -2.073,-5.27 C 64.957,58.596 63.512,55.13 62.436,52.77 61.995,51.804 61.444,50.466 61.21,49.797 60.294,47.178 59.233,46.062 56.843,45.202 56.415,45.048 55.809,44.623 55.107,43.985 53.563,42.581 52.845,42.246 51.59,42.344 c -4.37,0.341 -4.037,0.118 -6.029,4.035 -1.336,2.625 -1.87,4.219 -1.984,5.921 -0.047,0.704 -0.202,1.95 -0.344,2.768 -0.309,1.78 -1.103,7.263 -1.488,10.27 -0.179,1.396 -0.319,3.598 -0.395,6.216 -0.065,2.23 -0.212,4.936 -0.326,6.014 a 46.576,46.576 0 0 0 -0.21,4.013 c -0.004,2.754 -0.41,5.862 -0.825,6.312 -0.304,0.33 -0.949,-0.8 -1.881,-3.298 C 37.789,83.74 36.693,81.034 35.673,78.581 33.659,73.74 33.275,72.752 31.235,67.162 A 347.326,347.326 0 0 0 28.711,60.473 C 26.661,55.257 25.613,52.452 24.392,48.919 23.737,47.024 22.359,43.359 21.331,40.775 20.303,38.191 18.936,34.573 18.293,32.734 17.651,30.896 16.824,28.662 16.457,27.77 14.566,23.176 14.158,22.082 13.712,20.405 12.762,16.836 12.561,16.19 11.769,14.142 A 77.383,77.383 0 0 1 10.36,10.122 C 8.437,3.954 8.008,3.093 7.239,3.861 m 175.35,24.714 c -0.534,0.482 -1.154,1.68 -1.856,3.587 -0.318,0.863 -0.499,1.131 -1.22,1.801 -1.382,1.285 -1.627,2.67 -0.93,5.245 0.52,1.922 0.901,4.617 1.153,8.157 0.178,2.499 0.451,4.065 0.956,5.468 0.227,0.635 0.685,2.035 1.016,3.113 1.949,6.345 7.346,13.204 13.121,16.674 1.469,0.883 1.45,1.141 -0.262,3.561 -2.917,4.123 -4.61,6.841 -7.157,11.494 -1.897,3.467 -1.742,3.257 -9.03,12.277 a 253.183,253.183 0 0 1 -4.125,4.98 c -2.832,3.288 -2.909,3.455 -1.97,4.264 l 0.576,0.496 -0.215,0.416 c -0.118,0.229 -0.53,0.678 -0.915,0.999 -1.546,1.285 -1.875,1.907 -1.202,2.267 0.593,0.317 0.943,0.167 2.041,-0.879 1.075,-1.024 1.932,-1.541 2.566,-1.546 0.508,-0.004 0.884,-0.329 1.544,-1.331 0.416,-0.632 1.083,-1.32 2.226,-2.296 1.773,-1.514 2.847,-2.67 4.61,-4.961 0.628,-0.816 1.876,-2.245 2.774,-3.177 0.899,-0.933 1.957,-2.179 2.352,-2.771 a 23.287,23.287 0 0 1 1.485,-1.954 c 1.554,-1.78 5.774,-7.601 7.508,-10.355 2.672,-4.247 5.296,-7.967 5.88,-8.336 0.351,-0.222 0.781,-0.29 2.382,-0.377 1.446,-0.079 2.081,-0.169 2.444,-0.35 1.171,-0.582 1.259,-1.633 0.124,-1.475 -4.114,0.573 -4.136,-0.298 -0.146,-5.931 1.834,-2.588 2.206,-3.193 3.312,-5.375 0.595,-1.173 1.585,-2.876 2.201,-3.784 a 65.755,65.755 0 0 0 1.711,-2.652 c 0.324,-0.55 1.11,-1.561 1.745,-2.246 0.635,-0.685 1.447,-1.739 1.804,-2.341 0.358,-0.603 0.94,-1.447 1.295,-1.876 0.355,-0.429 0.901,-1.159 1.212,-1.622 0.311,-0.463 0.901,-1.184 1.309,-1.602 1.485,-1.521 2.228,-3.257 1.818,-4.248 -0.36,-0.868 -1.136,-0.804 -1.289,0.106 -0.221,1.316 -0.657,2.01 -1.553,2.467 -0.282,0.144 -0.745,0.552 -1.029,0.906 -0.764,0.956 -3.284,3.593 -3.613,3.783 -0.157,0.09 -0.577,0.166 -0.934,0.169 -0.74,0.005 -1.311,0.434 -1.311,0.985 0,0.891 -0.688,1.746 -4.595,5.709 -3.328,3.375 -4.114,4.255 -5.676,6.351 -3.922,5.265 -4.583,6.012 -5.322,6.015 -1.455,0.007 -11.689,-13.142 -12.307,-15.813 -0.305,-1.315 -1.796,-10.669 -1.961,-12.297 -0.517,-5.103 -0.544,-8.013 -0.086,-9.293 0.678,-1.891 -1.103,-3.629 -2.461,-2.402 m 0.304,4.503 c 0.133,0.419 0.34,2.292 0.555,5.02 a 92.26,92.26 0 0 0 0.541,4.934 c 0.74,5.094 0.275,5.371 -1.827,1.09 -1.475,-3.004 -1.602,-3.906 -1.023,-7.23 0.507,-2.911 1.414,-4.884 1.754,-3.814 m 172.6,7.47 c -1.181,0.131 -2.175,0.391 -3.152,0.824 -0.465,0.206 -1.085,0.317 -2.179,0.39 -5.348,0.356 -9.878,7.991 -9.889,16.666 0,0.51 -0.167,1.848 -0.369,2.973 -0.571,3.166 -0.546,6.723 0.068,9.815 0.643,3.241 0.785,3.715 1.538,5.135 3.04,5.732 6.701,7.927 11.52,6.906 0.737,-0.156 1.679,-0.285 2.095,-0.286 2.521,-0.008 5.301,-1.62 9.201,-5.333 0.558,-0.531 1.774,-1.575 2.703,-2.321 2.035,-1.634 2.979,-2.624 4.475,-4.692 1.862,-2.575 2.386,-3.835 2.693,-6.479 0.294,-2.523 2.541,-6.308 3.746,-6.308 0.924,0 5.94,6.301 8.355,10.495 1.568,2.723 2.772,4.364 3.469,4.725 0.817,0.424 1.225,-0.429 0.607,-1.269 a 148.46,148.46 0 0 0 -0.985,-1.304 c -0.374,-0.491 -1.134,-1.714 -1.689,-2.718 -0.555,-1.005 -1.417,-2.388 -1.916,-3.074 -2.015,-2.771 -3.603,-5.295 -3.436,-5.462 0.287,-0.288 3.29,2.688 4.603,4.56 2.334,3.329 3.287,4.452 3.778,4.452 0.772,0 0.641,-0.958 -0.302,-2.204 a 83.063,83.063 0 0 1 -1.568,-2.175 c -1.88,-2.696 -4.267,-5.32 -6.919,-7.606 -2.601,-2.242 -2.681,-2.432 -1.819,-4.348 1.026,-2.283 1.364,-3.922 0.902,-4.383 -0.321,-0.321 -0.412,-0.297 -1.058,0.282 a 11.17,11.17 0 0 1 -1.071,0.842 c -0.332,0.22 -0.643,0.617 -0.93,1.189 -0.655,1.303 -1.517,1.403 -2.069,0.239 -0.328,-0.691 0.436,-2.106 1.137,-2.106 0.323,0 0.41,-0.748 0.114,-0.988 -0.398,-0.322 -0.908,-0.228 -1.806,0.334 -1.283,0.804 -1.619,0.74 -3.624,-0.685 -2.867,-2.038 -3.216,-2.254 -5.663,-3.51 -4.008,-2.059 -7.512,-2.913 -10.56,-2.576 m -42.101,0.536 c -1.761,0.371 -2.214,1.219 -2.308,4.321 l -0.072,2.365 -0.471,0.811 c -0.637,1.097 -0.643,2.472 -0.02,4.804 0.229,0.859 0.48,2.227 0.558,3.041 0.078,0.814 0.203,1.814 0.278,2.223 0.076,0.408 0.193,2.354 0.261,4.324 0.103,2.957 0.197,4.028 0.545,6.149 0.308,1.884 0.453,3.34 0.544,5.473 0.13,3.068 0.121,3.007 1.398,8.986 1.01,4.726 1.567,6.014 2.606,6.014 0.823,0 1.156,-0.518 1.332,-2.071 0.049,-0.433 0.204,-1.041 0.345,-1.351 0.365,-0.803 0.328,-1.198 -0.23,-2.433 -0.471,-1.042 -0.497,-1.181 -0.597,-3.125 -0.058,-1.119 -0.201,-2.477 -0.318,-3.018 -0.287,-1.333 -1.218,-6.935 -1.559,-9.386 -0.216,-1.555 -0.277,-2.705 -0.277,-5.236 0,-2.294 -0.079,-4.012 -0.272,-5.87 -0.582,-5.61 -0.381,-7.242 1.293,-10.484 1.063,-2.057 1.701,-2.377 3.208,-1.612 2.897,1.472 9.231,8.386 10.231,11.167 0.458,1.273 1.05,1.619 1.454,0.85 0.243,-0.463 0.12,-1.139 -0.441,-2.415 -0.581,-1.321 -0.598,-1.603 -0.101,-1.721 1.981,-0.471 0.643,-2.992 -3.973,-7.485 -3.707,-3.607 -4.968,-4.2 -8.223,-3.861 -0.793,0.082 -1.077,0.051 -1.757,-0.192 -0.919,-0.33 -2.54,-0.456 -3.434,-0.268 m -167.31,0.625 c -4.226,0.551 -7.189,1.391 -9.459,2.683 -2.846,1.619 -3.362,1.76 -7.225,1.965 -3.123,0.165 -3.428,0.23 -3.763,0.798 -0.447,0.756 -0.311,1.465 0.407,2.135 0.865,0.805 0.546,1.206 -2.126,2.669 -1.673,0.917 -2.048,1.231 -1.997,1.674 0.121,1.038 2.87,-0.186 8.014,-3.567 2.584,-1.698 3.856,-2.316 5.273,-2.56 1.614,-0.277 5.284,-1.05 8.038,-1.692 5.208,-1.215 6.077,-1.268 6.083,-0.372 0.005,0.667 -1.011,2.286 -2.339,3.728 -3.943,4.283 -7.417,9.519 -9.409,14.181 a 77.414,77.414 0 0 1 -1.476,3.243 c -1.402,2.825 -2.553,7.039 -3.458,12.663 -0.46,2.855 -0.411,4.168 0.268,7.118 0.442,1.924 0.434,3.281 -0.03,5.489 -0.838,3.984 -0.333,5.164 2.118,4.943 1.442,-0.13 2.221,-0.128 4.257,0.008 2.043,0.137 3.33,-0.067 6.419,-1.02 5.532,-1.706 6.004,-1.896 7.833,-3.149 0.571,-0.391 1.712,-0.977 2.576,-1.322 0.852,-0.342 2.766,-1.198 4.253,-1.905 1.486,-0.706 3.493,-1.565 4.459,-1.909 3.61,-1.286 4.114,-1.49 6.689,-2.709 1.45,-0.686 2.848,-1.326 3.109,-1.422 0.26,-0.097 1.385,-0.601 2.5,-1.12 1.114,-0.52 2.821,-1.204 3.792,-1.521 3.114,-1.015 5.059,-2.176 5.059,-3.019 0,-0.821 -0.59,-0.9 -1.555,-0.208 -1.031,0.74 -1.864,1.125 -3.783,1.749 -0.966,0.314 -2.669,0.994 -3.784,1.511 -1.115,0.517 -2.24,1.021 -2.5,1.12 -0.26,0.1 -1.506,0.665 -2.77,1.256 -5.9,2.761 -7.836,2.807 -3.919,0.093 a 63.56,63.56 0 0 0 2.703,-2.023 c 0.817,-0.649 2.459,-1.838 3.648,-2.641 1.19,-0.804 2.778,-1.922 3.53,-2.485 0.751,-0.563 1.71,-1.267 2.129,-1.564 0.419,-0.297 1.184,-1.036 1.698,-1.642 0.515,-0.606 1.427,-1.476 2.028,-1.933 2.225,-1.694 1.828,-3.053 -0.442,-1.515 -0.31,0.21 -1.02,0.632 -1.578,0.938 -0.557,0.306 -1.598,0.97 -2.313,1.476 -4.674,3.308 -8.188,5.667 -10.08,6.768 -0.802,0.467 -2.401,1.551 -3.553,2.41 -1.152,0.858 -3.736,2.73 -5.743,4.159 -8.451,6.019 -9.923,6.89 -13.053,7.718 -0.997,0.263 -2.45,0.689 -3.231,0.946 -1.918,0.631 -2.95,0.851 -4.392,0.94 -2.074,0.128 -2.471,-0.178 -2.984,-2.296 -0.607,-2.511 -0.665,-3.232 -0.403,-4.946 0.684,-4.478 0.816,-5.136 2.447,-12.212 0.274,-1.189 0.726,-2.74 1.005,-3.446 0.279,-0.706 0.767,-2.074 1.085,-3.041 0.318,-0.966 0.912,-2.425 1.321,-3.243 0.408,-0.817 0.885,-1.865 1.059,-2.328 0.393,-1.042 2.298,-4.862 2.998,-6.011 0.285,-0.467 1.077,-1.924 1.761,-3.236 1.302,-2.499 1.519,-2.808 5.038,-7.164 2.454,-3.038 2.686,-3.388 2.686,-4.055 0.001,-0.971 -0.731,-1.229 -2.431,-0.855 -1.135,0.25 -2.048,0.249 -2.973,-0.002 -0.79,-0.214 -2.727,-0.351 -3.514,-0.248 m 82.967,2.379 c -4.124,3.846 -8.6,10.359 -10.002,14.551 -1.732,5.183 -0.901,10.651 2.717,17.859 5.765,11.489 17.971,16.887 25.943,11.473 1.323,-0.899 3.495,-3.092 5.191,-5.241 a 136.1,136.1 0 0 1 2.314,-2.865 c 1.085,-1.274 1.927,-2.537 3.02,-4.527 1.807,-3.289 2.065,-3.283 3.759,0.085 1.444,2.871 1.877,3.457 4.555,6.178 3.361,3.413 4.044,3.869 7.146,4.76 2.904,0.835 3.203,0.869 7.593,0.864 l 4.054,-0.005 1.854,-0.49 c 3.234,-0.856 8.101,-3.314 9.924,-5.012 a 50.627,50.627 0 0 1 2.073,-1.812 c 2.288,-1.863 6.078,-6.933 7.045,-9.426 2.002,-5.161 1.996,-8.449 -0.021,-11.295 -0.574,-0.81 -1.476,-2.349 -2.004,-3.419 -2.601,-5.276 -7.819,-8.596 -17.013,-10.827 -0.668,-0.163 -1.18,-0.392 -1.612,-0.721 -0.9,-0.688 -1.549,-0.716 -3.767,-0.16 -1.629,0.409 -1.968,0.446 -4.925,0.537 -5.036,0.154 -7.915,0.795 -9.916,2.205 -0.455,0.321 -1.253,0.818 -1.773,1.104 -2.831,1.555 -4.733,5.657 -4.687,10.105 0.018,1.703 -0.021,2.034 -0.467,3.919 -0.346,1.46 -0.513,2.534 -0.575,3.692 -0.126,2.356 -1.153,4.185 -4.321,7.694 -1.883,2.087 -5.718,6.452 -6.732,7.663 -1.01,1.207 -2.847,2.896 -3.927,3.611 -2.365,1.567 -9.567,0.861 -14.009,-1.373 -2.539,-1.276 -5.785,-5.869 -7.274,-10.294 -2.165,-6.433 1.702,-19.475 7.475,-25.213 1.484,-1.475 1.68,-2.073 0.799,-2.438 -0.584,-0.242 -0.595,-0.313 -0.193,-1.21 0.925,-2.061 -0.018,-2.049 -2.244,0.028 m 86.661,-0.605 c 0.334,0.293 0.294,0.671 -0.154,1.449 -0.855,1.487 -1.405,1.511 -1.474,0.065 -0.077,-1.614 0.696,-2.333 1.628,-1.514 M 53.53,44.976 c 0.556,0.497 0.48,0.795 -0.11,0.436 -0.52,-0.317 -0.84,-0.817 -0.522,-0.817 0.112,0 0.397,0.171 0.632,0.381 m 302.96,0.703 c 5.703,1.705 7.515,2.266 9.46,2.928 6.625,2.255 6.845,2.582 5.09,7.542 -0.281,0.794 -0.569,1.98 -0.698,2.877 -0.405,2.805 -0.83,3.978 -3.049,8.42 -4.515,9.034 -8.783,12.946 -14.181,12.994 -2.898,0.027 -6.192,-2.55 -8.472,-6.626 -2.156,-3.856 -3.334,-12.689 -2.157,-16.179 1.893,-5.614 5.494,-9.819 10.206,-11.917 1.474,-0.657 1.726,-0.659 3.801,-0.039 m -305.62,0.71 c 0.169,0.169 0.577,0.761 0.906,1.315 1.008,1.696 0.966,1.932 -1.056,5.96 -1.247,2.484 -1.823,3.811 -2.34,5.39 -1.206,3.677 -1.876,3.13 -1.288,-1.052 0.118,-0.839 0.214,-2.346 0.214,-3.35 0,-2.212 0.189,-3.202 1.109,-5.827 0.939,-2.678 1.578,-3.312 2.455,-2.436 m 224.01,0.169 c 0.276,0.333 -0.204,0.719 -2.888,2.321 -1.345,0.802 -2.963,1.858 -3.597,2.346 a 49.42,49.42 0 0 1 -2.032,1.478 c -0.483,0.326 -1.38,1.071 -1.993,1.657 -1.3,1.241 -1.567,1.298 -1.628,0.347 -0.136,-2.101 1.238,-4.437 3.282,-5.58 0.52,-0.29 1.371,-0.816 1.892,-1.167 1.718,-1.16 6.385,-2.1 6.964,-1.402 m 13.037,0.464 c 1.825,0.133 4.674,1.083 7.727,2.575 2.472,1.208 3.703,2.301 2.577,2.291 -0.444,-0.005 -0.729,-0.131 -2.804,-1.24 -1.344,-0.72 -1.61,-0.79 -4.961,-1.323 a 276.544,276.544 0 0 1 -3.685,-0.61 c -0.631,-0.114 -2.029,-0.266 -3.108,-0.34 -1.079,-0.073 -2.104,-0.165 -2.278,-0.205 -1.265,-0.291 2.911,-1.518 4.505,-1.323 0.298,0.036 1.21,0.115 2.027,0.175 m -105.56,1.412 c 0.165,0.179 0.66,0.984 1.098,1.79 0.438,0.806 1.039,1.86 1.334,2.344 0.801,1.31 0.867,1.529 1.311,4.327 0.69,4.345 0.61,5.004 -0.472,3.875 -0.796,-0.83 -1.671,-2.665 -2.366,-4.959 a 57.05,57.05 0 0 0 -0.947,-2.866 c -1.094,-2.888 -1.068,-5.709 0.042,-4.511 m 106.6,2.179 c 4.068,0.688 4.863,0.906 6.243,1.712 0.514,0.3 1.628,0.871 2.477,1.27 1.726,0.811 2.278,1.163 4.03,2.569 1.823,1.463 1.758,1.275 1.753,5.052 -0.005,4.107 -0.291,5.167 -2.35,8.716 a 70.275,70.275 0 0 0 -1.504,2.762 c -0.558,1.094 -0.965,1.67 -1.812,2.567 a 60.156,60.156 0 0 0 -2.049,2.307 c -1.193,1.434 -1.814,1.995 -3.207,2.903 -5.884,3.832 -9.825,4.647 -15.628,3.229 -5.712,-1.394 -8.546,-3.52 -10.827,-8.119 -1.491,-3.005 -1.467,-2.883 -1.469,-7.557 -0.002,-4.712 0.149,-5.575 1.41,-8.092 0.885,-1.767 1.468,-2.532 1.881,-2.473 0.309,0.044 0.316,0.065 0.688,2.068 0.497,2.674 2.707,5.723 3.926,5.417 0.644,-0.161 0.534,-0.546 -0.493,-1.724 -4.646,-5.33 -1.116,-11.914 6.911,-12.89 1.078,-0.131 2.263,-0.285 2.635,-0.342 1.332,-0.205 3.62,-0.011 7.385,0.625 m -203.74,0.119 c -5.15,1.168 -7.68,4.789 -10.533,15.077 -1.552,5.596 -0.96,9.813 1.872,13.332 5.558,6.904 15.005,7.927 25.36,2.746 3.396,-1.699 3.479,-1.756 5.395,-3.704 2.489,-2.53 3.862,-3.307 4.611,-2.609 1.596,1.487 7.02,11.13 7.409,13.17 0.47,2.474 0.8,3.065 1.526,2.734 0.401,-0.183 0.778,-0.914 0.781,-1.516 0.003,-0.649 0.177,-0.834 0.748,-0.796 0.579,0.039 1.142,-0.277 1.142,-0.642 0,-0.384 -2.002,-4.311 -3.824,-7.503 -1.978,-3.464 -2.253,-4.017 -2.734,-5.48 a 32.044,32.044 0 0 0 -0.812,-2.169 c -0.868,-2.035 -0.855,-2.077 1.368,-4.341 1.885,-1.919 2.302,-2.602 2.172,-3.553 -0.139,-1.011 1.217,-2.421 2.748,-2.86 1.732,-0.497 1.876,-1.537 0.214,-1.537 -1.177,0 -3.91,1.885 -6.909,4.764 -2.397,2.3 -2.296,2.342 -4.999,-2.061 -0.635,-1.035 -1.302,-1.809 -3.435,-3.987 -1.455,-1.486 -2.977,-3.115 -3.381,-3.619 -0.796,-0.995 -1.312,-1.42 -3.594,-2.965 -2.924,-1.978 -5.313,-2.563 -10.733,-2.624 -2.66,-0.031 -3.79,0.006 -4.392,0.143 m -28.105,0.37 c 1.02,0.896 1.603,3.014 0.644,2.343 -0.372,-0.261 -1.493,-1.937 -1.602,-2.398 -0.125,-0.526 0.325,-0.5 0.958,0.055 m 34.12,1.208 c 1.737,0.373 7.528,3.851 9.652,5.798 a 57.545,57.545 0 0 0 1.691,1.487 c 0.404,0.334 1.25,1.306 1.881,2.158 a 37.475,37.475 0 0 0 2.389,2.863 c 2.076,2.193 4.445,5.495 4.363,6.079 -0.125,0.88 -0.484,0.601 -5.091,-3.97 -4.655,-4.618 -4.756,-4.708 -6.779,-6.054 a 70.51,70.51 0 0 1 -2.5,-1.76 c -1.369,-1.02 -3.757,-2.349 -7.189,-4.001 -2.277,-1.096 -2.699,-1.408 -2.524,-1.865 0.271,-0.705 2.437,-1.093 4.107,-0.735 m 283.52,2.004 c 0.764,0.764 0.289,2.356 -1.476,4.943 -1.531,2.245 -1.891,0.038 -0.552,-3.387 0.796,-2.035 1.222,-2.362 2.028,-1.556 m -107.98,0.643 c 0,0.272 -2.519,5.034 -2.836,5.361 -0.947,0.978 -1.613,-0.643 -0.825,-2.007 0.88,-1.523 3.661,-4.07 3.661,-3.354 m -180.12,0.295 c 2.241,0.771 7.701,3.609 9.48,4.925 0.539,0.4 1.771,1.262 2.737,1.916 1.938,1.311 9.297,8.431 10.19,9.859 0.702,1.122 0.45,1.682 -1.183,2.626 -8.567,4.951 -8.932,5.087 -13.669,5.08 C 87.23,79.647 83.105,77.139 82.1,72.297 81.476,69.29 82.136,60.431 83.195,57.62 c 0.935,-2.485 1.666,-2.985 3.457,-2.368 m 102.88,4.287 c 0.377,0.453 1.544,1.912 2.594,3.244 1.049,1.331 2.654,3.241 3.565,4.244 2.537,2.794 2.792,3.309 2.019,4.082 -1.208,1.207 -5.839,-1.788 -7.205,-4.66 -1.779,-3.739 -2.242,-5.126 -2.246,-6.731 -0.003,-1.375 0.248,-1.411 1.273,-0.179 m -144.66,0.685 c 0.004,2.207 -1.021,10.313 -1.346,10.637 -0.729,0.73 -0.409,-5.11 0.558,-10.18 0.44,-2.303 0.784,-2.502 0.788,-0.457 m 35.944,0.02 c -0.003,0.498 -0.095,1.513 -0.206,2.256 -0.288,1.942 -0.407,6.838 -0.207,8.549 0.685,5.857 4.069,8.921 11.146,10.095 2.789,0.463 2.914,0.527 2.027,1.045 -2.717,1.587 -8.144,1.235 -11.065,-0.718 -3.618,-2.42 -4.908,-6.155 -4.124,-11.944 0.149,-1.098 0.271,-2.55 0.271,-3.228 0.002,-2.464 0.686,-5.443 1.511,-6.583 0.506,-0.698 0.652,-0.579 0.647,0.528 m 225.14,2.41 c 0.403,1.22 -0.218,5.018 -1.24,7.594 -0.494,1.244 -0.989,2.018 -2.433,3.806 -0.63,0.78 -1.484,1.875 -1.898,2.432 -1.282,1.728 -3.489,3.388 -3.489,2.626 0,-0.431 0.754,-1.476 2.039,-2.828 1.187,-1.248 1.398,-1.551 2.087,-2.992 a 46.895,46.895 0 0 1 1.478,-2.819 c 1.441,-2.46 2.047,-3.928 2.426,-5.878 0.514,-2.643 0.69,-2.973 1.03,-1.941 m -43.366,0.586 0.402,0.403 -0.049,4.028 c -0.05,4.004 -0.085,4.356 -0.435,4.356 -0.461,0 -0.783,-1.162 -0.686,-2.473 0.089,-1.196 0.077,-1.277 -0.318,-2.122 -1.102,-2.357 -0.275,-5.552 1.086,-4.192 m -56.566,1.051 c -0.351,1.446 -3.037,6.184 -3.681,6.491 -1.01,0.483 -1.514,-0.703 -0.77,-1.81 0.961,-1.432 4.118,-5.053 4.405,-5.053 0.081,0 0.1,0.152 0.046,0.372 m -129.13,3.506 c 0,0.544 -0.095,1.611 -0.211,2.373 a 28.05,28.05 0 0 0 -0.254,2.668 c -0.057,1.646 -0.054,1.621 -0.196,1.621 -0.681,0 -1.022,-4.64 -0.482,-6.554 0.528,-1.869 1.143,-1.927 1.143,-0.108 m 122.47,6.531 c 0.848,0.667 0.39,1.661 -3.262,7.079 -1.755,2.602 -6.523,10.214 -7.53,12.022 -0.789,1.415 -3.685,4.948 -5.998,7.314 a 88.357,88.357 0 0 0 -2.923,3.165 c -1.852,2.136 -4.754,4.606 -5.412,4.606 -0.64,0 0.134,-1.517 1.655,-3.244 0.426,-0.483 1.824,-2.186 3.108,-3.784 1.284,-1.597 3.25,-4.027 4.369,-5.398 2.539,-3.112 3.551,-4.526 4.63,-6.467 3.819,-6.874 7.073,-11.998 9.46,-14.897 0.566,-0.688 1.329,-0.847 1.903,-0.396 m 55.093,2.892 c 0,0.806 -1.757,3.253 -2.869,3.996 -1.979,1.322 -1.65,0.244 0.748,-2.442 1.438,-1.613 2.121,-2.113 2.121,-1.554 m -211.25,1.738 c -0.057,1.045 -0.235,1.509 -0.446,1.166 -0.161,-0.259 -0.107,-2.032 0.075,-2.489 l 0.162,-0.405 0.133,0.338 c 0.073,0.185 0.107,0.811 0.076,1.39 m 202.58,8.027 c -0.101,0.524 -2.478,1.287 -2.731,0.877 -0.104,-0.168 0.626,-0.741 1.201,-0.942 0.693,-0.242 1.582,-0.204 1.53,0.065"
     fill-rule="evenodd"
     transform="matrix(0.40823094,0,0,0.40823094,118.70413,76.0886)" />
</svg>
